<?xml version="1.0" encoding="UTF-8"?>
<svg width="35px" height="30px" viewBox="0 0 35 30" version="1.1" xmlns="http://www.w3.org/2000/svg" xmlns:xlink="http://www.w3.org/1999/xlink">
    <title>undo</title>
    <g id="Desktop" stroke="none" stroke-width="1" fill="none" fill-rule="evenodd">
        <g id="Agile-Coaching-page" transform="translate(-1567.000000, -2111.000000)" fill="#CB63FF" fill-rule="nonzero">
            <g id="Tools-and-Practice-Section" transform="translate(0.000000, 507.000000)">
                <g id="undo" transform="translate(1567.000000, 1604.000000)">
                    <path d="M21.863346,5.225438 L14.8244557,5.225438 L14.8244557,2.9141171 C14.8242041,1.73544284 14.1140743,0.672940126 13.0251072,0.221915063 C11.93614,-0.22911 10.6827152,0.0201337244 9.84914076,0.853456475 L1.28005697,9.42108294 C-0.426685656,11.1283411 -0.426685656,13.8958067 1.28005697,15.6030648 L9.84914076,24.1706913 C10.6827152,25.004014 11.93614,25.2532578 13.0251072,24.8022327 C14.1140743,24.3512076 14.8242041,23.2887049 14.8244557,22.1100307 L14.8244557,19.7987098 L23.3206732,19.7987098 C28.1478327,19.8035297 32.0598163,23.7155133 32.0646362,28.5426728 C32.0646362,29.3475324 32.7171038,30 33.5219634,30 C34.326823,30 34.9792906,29.3475324 34.9792906,28.5426728 L34.9792906,18.3413826 C34.9712591,11.1009758 29.1037528,5.23346952 21.863346,5.225438 Z" id="Path"></path>
                </g>
            </g>
        </g>
    </g>
</svg>